<mxfile host="app.diagrams.net" modified="2022-09-26T23:21:44.741Z" agent="5.0 (Windows NT 10.0; Win64; x64) AppleWebKit/537.36 (KHTML, like Gecko) Chrome/105.0.0.0 Safari/537.36" etag="xaqpobL6nRi-EtUa9h-Y" version="20.3.6" type="github">
  <diagram id="qfWtz7Sb-l_P8msNUsGX" name="Page-1">
    <mxGraphModel dx="1630" dy="1104" grid="1" gridSize="10" guides="1" tooltips="1" connect="1" arrows="1" fold="1" page="1" pageScale="1" pageWidth="850" pageHeight="1100" math="0" shadow="0">
      <root>
        <mxCell id="0" />
        <mxCell id="1" parent="0" />
        <mxCell id="hxGJ-42wKDciWnZVz81r-1" value="Search for title" style="ellipse;whiteSpace=wrap;html=1;" vertex="1" parent="1">
          <mxGeometry x="-690" y="270" width="120" height="80" as="geometry" />
        </mxCell>
        <mxCell id="hxGJ-42wKDciWnZVz81r-2" value="Actor" style="shape=umlActor;verticalLabelPosition=bottom;verticalAlign=top;html=1;outlineConnect=0;" vertex="1" parent="1">
          <mxGeometry x="-820" y="280" width="30" height="60" as="geometry" />
        </mxCell>
        <mxCell id="hxGJ-42wKDciWnZVz81r-3" value="" style="endArrow=classic;html=1;rounded=0;entryX=0;entryY=0.5;entryDx=0;entryDy=0;" edge="1" parent="1" target="hxGJ-42wKDciWnZVz81r-1">
          <mxGeometry width="50" height="50" relative="1" as="geometry">
            <mxPoint x="-790" y="310" as="sourcePoint" />
            <mxPoint x="-740" y="260" as="targetPoint" />
          </mxGeometry>
        </mxCell>
        <mxCell id="hxGJ-42wKDciWnZVz81r-4" value="Make payment using credit card" style="ellipse;whiteSpace=wrap;html=1;" vertex="1" parent="1">
          <mxGeometry x="-545" y="170" width="120" height="80" as="geometry" />
        </mxCell>
        <mxCell id="hxGJ-42wKDciWnZVz81r-5" value="cancel purchase" style="ellipse;whiteSpace=wrap;html=1;" vertex="1" parent="1">
          <mxGeometry x="-230" y="560" width="120" height="80" as="geometry" />
        </mxCell>
        <mxCell id="hxGJ-42wKDciWnZVz81r-6" value="" style="endArrow=classic;html=1;rounded=0;entryX=0.1;entryY=0.788;entryDx=0;entryDy=0;entryPerimeter=0;exitX=0.75;exitY=0.025;exitDx=0;exitDy=0;exitPerimeter=0;" edge="1" parent="1" source="hxGJ-42wKDciWnZVz81r-25" target="hxGJ-42wKDciWnZVz81r-4">
          <mxGeometry width="50" height="50" relative="1" as="geometry">
            <mxPoint x="-580" y="290" as="sourcePoint" />
            <mxPoint x="-530" y="240" as="targetPoint" />
          </mxGeometry>
        </mxCell>
        <mxCell id="hxGJ-42wKDciWnZVz81r-7" value="" style="endArrow=classic;html=1;rounded=0;entryX=-0.017;entryY=0.6;entryDx=0;entryDy=0;entryPerimeter=0;exitX=0.967;exitY=0.238;exitDx=0;exitDy=0;exitPerimeter=0;" edge="1" parent="1" source="hxGJ-42wKDciWnZVz81r-25" target="hxGJ-42wKDciWnZVz81r-5">
          <mxGeometry width="50" height="50" relative="1" as="geometry">
            <mxPoint x="-580" y="330" as="sourcePoint" />
            <mxPoint x="-530" y="280" as="targetPoint" />
          </mxGeometry>
        </mxCell>
        <mxCell id="hxGJ-42wKDciWnZVz81r-18" value="" style="edgeStyle=orthogonalEdgeStyle;rounded=0;orthogonalLoop=1;jettySize=auto;html=1;" edge="1" parent="1" source="hxGJ-42wKDciWnZVz81r-8" target="hxGJ-42wKDciWnZVz81r-17">
          <mxGeometry relative="1" as="geometry" />
        </mxCell>
        <mxCell id="hxGJ-42wKDciWnZVz81r-8" value="Authorize card information" style="ellipse;whiteSpace=wrap;html=1;" vertex="1" parent="1">
          <mxGeometry x="-310" y="170" width="120" height="80" as="geometry" />
        </mxCell>
        <mxCell id="hxGJ-42wKDciWnZVz81r-9" value="Actor" style="shape=umlActor;verticalLabelPosition=bottom;verticalAlign=top;html=1;outlineConnect=0;" vertex="1" parent="1">
          <mxGeometry x="-80" y="280" width="30" height="60" as="geometry" />
        </mxCell>
        <mxCell id="hxGJ-42wKDciWnZVz81r-11" value="Actor" style="shape=umlActor;verticalLabelPosition=bottom;verticalAlign=top;html=1;outlineConnect=0;" vertex="1" parent="1">
          <mxGeometry x="-820" y="580" width="30" height="60" as="geometry" />
        </mxCell>
        <mxCell id="hxGJ-42wKDciWnZVz81r-12" value="" style="endArrow=classic;html=1;rounded=0;entryX=0;entryY=0.5;entryDx=0;entryDy=0;exitX=1;exitY=0.5;exitDx=0;exitDy=0;" edge="1" parent="1" source="hxGJ-42wKDciWnZVz81r-4" target="hxGJ-42wKDciWnZVz81r-8">
          <mxGeometry width="50" height="50" relative="1" as="geometry">
            <mxPoint x="-380" y="210" as="sourcePoint" />
            <mxPoint x="-330" y="160" as="targetPoint" />
          </mxGeometry>
        </mxCell>
        <mxCell id="hxGJ-42wKDciWnZVz81r-13" value="Add books" style="ellipse;whiteSpace=wrap;html=1;" vertex="1" parent="1">
          <mxGeometry x="-690" y="570" width="120" height="80" as="geometry" />
        </mxCell>
        <mxCell id="hxGJ-42wKDciWnZVz81r-14" value="" style="endArrow=classic;html=1;rounded=0;entryX=0;entryY=0.5;entryDx=0;entryDy=0;" edge="1" parent="1" target="hxGJ-42wKDciWnZVz81r-13">
          <mxGeometry width="50" height="50" relative="1" as="geometry">
            <mxPoint x="-790" y="620" as="sourcePoint" />
            <mxPoint x="-740" y="570" as="targetPoint" />
          </mxGeometry>
        </mxCell>
        <mxCell id="hxGJ-42wKDciWnZVz81r-15" value="" style="endArrow=classic;html=1;rounded=0;entryX=1;entryY=0.5;entryDx=0;entryDy=0;" edge="1" parent="1" source="hxGJ-42wKDciWnZVz81r-9" target="hxGJ-42wKDciWnZVz81r-8">
          <mxGeometry width="50" height="50" relative="1" as="geometry">
            <mxPoint x="-170" y="340" as="sourcePoint" />
            <mxPoint x="-120" y="290" as="targetPoint" />
          </mxGeometry>
        </mxCell>
        <mxCell id="hxGJ-42wKDciWnZVz81r-16" value="include" style="text;html=1;strokeColor=none;fillColor=none;align=center;verticalAlign=middle;whiteSpace=wrap;rounded=0;" vertex="1" parent="1">
          <mxGeometry x="-390" y="170" width="60" height="30" as="geometry" />
        </mxCell>
        <mxCell id="hxGJ-42wKDciWnZVz81r-17" value="credit card number&lt;br&gt;name of owner&lt;br&gt;expiration date" style="ellipse;whiteSpace=wrap;html=1;fillColor=rgb(255, 255, 255);strokeColor=rgb(0, 0, 0);fontColor=rgb(0, 0, 0);" vertex="1" parent="1">
          <mxGeometry x="-310" y="10" width="120" height="80" as="geometry" />
        </mxCell>
        <mxCell id="hxGJ-42wKDciWnZVz81r-19" value="include" style="text;html=1;strokeColor=none;fillColor=none;align=center;verticalAlign=middle;whiteSpace=wrap;rounded=0;rotation=90;" vertex="1" parent="1">
          <mxGeometry x="-250" y="120" width="60" height="30" as="geometry" />
        </mxCell>
        <mxCell id="hxGJ-42wKDciWnZVz81r-20" value="" style="endArrow=classic;html=1;rounded=0;entryX=0.5;entryY=1;entryDx=0;entryDy=0;" edge="1" parent="1" target="hxGJ-42wKDciWnZVz81r-1">
          <mxGeometry width="50" height="50" relative="1" as="geometry">
            <mxPoint x="-630" y="570" as="sourcePoint" />
            <mxPoint x="-580" y="520" as="targetPoint" />
          </mxGeometry>
        </mxCell>
        <mxCell id="hxGJ-42wKDciWnZVz81r-21" value="extends" style="text;html=1;strokeColor=none;fillColor=none;align=center;verticalAlign=middle;whiteSpace=wrap;rounded=0;" vertex="1" parent="1">
          <mxGeometry x="-700" y="450" width="60" height="30" as="geometry" />
        </mxCell>
        <mxCell id="hxGJ-42wKDciWnZVz81r-22" value="bank" style="text;html=1;strokeColor=none;fillColor=none;align=center;verticalAlign=middle;whiteSpace=wrap;rounded=0;" vertex="1" parent="1">
          <mxGeometry x="-95" y="250" width="60" height="30" as="geometry" />
        </mxCell>
        <mxCell id="hxGJ-42wKDciWnZVz81r-23" value="user" style="text;html=1;strokeColor=none;fillColor=none;align=center;verticalAlign=middle;whiteSpace=wrap;rounded=0;" vertex="1" parent="1">
          <mxGeometry x="-835" y="240" width="60" height="30" as="geometry" />
        </mxCell>
        <mxCell id="hxGJ-42wKDciWnZVz81r-24" value="bookstore owner" style="text;html=1;strokeColor=none;fillColor=none;align=center;verticalAlign=middle;whiteSpace=wrap;rounded=0;" vertex="1" parent="1">
          <mxGeometry x="-835" y="550" width="60" height="30" as="geometry" />
        </mxCell>
        <mxCell id="hxGJ-42wKDciWnZVz81r-25" value="hard cover" style="ellipse;whiteSpace=wrap;html=1;" vertex="1" parent="1">
          <mxGeometry x="-500" y="525" width="120" height="80" as="geometry" />
        </mxCell>
        <mxCell id="hxGJ-42wKDciWnZVz81r-26" value="soft cover" style="ellipse;whiteSpace=wrap;html=1;" vertex="1" parent="1">
          <mxGeometry x="-500" y="640" width="120" height="80" as="geometry" />
        </mxCell>
        <mxCell id="hxGJ-42wKDciWnZVz81r-27" value="" style="endArrow=classic;html=1;rounded=0;entryX=0;entryY=0.5;entryDx=0;entryDy=0;" edge="1" parent="1" target="hxGJ-42wKDciWnZVz81r-25">
          <mxGeometry width="50" height="50" relative="1" as="geometry">
            <mxPoint x="-570" y="600" as="sourcePoint" />
            <mxPoint x="-520" y="550" as="targetPoint" />
          </mxGeometry>
        </mxCell>
        <mxCell id="hxGJ-42wKDciWnZVz81r-28" value="" style="endArrow=classic;html=1;rounded=0;entryX=0;entryY=0.5;entryDx=0;entryDy=0;" edge="1" parent="1" target="hxGJ-42wKDciWnZVz81r-26">
          <mxGeometry width="50" height="50" relative="1" as="geometry">
            <mxPoint x="-580" y="635" as="sourcePoint" />
            <mxPoint x="-530" y="585" as="targetPoint" />
          </mxGeometry>
        </mxCell>
        <mxCell id="hxGJ-42wKDciWnZVz81r-31" value="" style="endArrow=classic;html=1;rounded=0;exitX=0.983;exitY=0.625;exitDx=0;exitDy=0;exitPerimeter=0;" edge="1" parent="1" source="hxGJ-42wKDciWnZVz81r-1" target="hxGJ-42wKDciWnZVz81r-25">
          <mxGeometry width="50" height="50" relative="1" as="geometry">
            <mxPoint x="-510" y="380" as="sourcePoint" />
            <mxPoint x="-460" y="330" as="targetPoint" />
          </mxGeometry>
        </mxCell>
        <mxCell id="hxGJ-42wKDciWnZVz81r-32" value="" style="endArrow=classic;html=1;rounded=0;exitX=0.742;exitY=1;exitDx=0;exitDy=0;exitPerimeter=0;entryX=0;entryY=0;entryDx=0;entryDy=0;" edge="1" parent="1" source="hxGJ-42wKDciWnZVz81r-1" target="hxGJ-42wKDciWnZVz81r-26">
          <mxGeometry width="50" height="50" relative="1" as="geometry">
            <mxPoint x="-620" y="400" as="sourcePoint" />
            <mxPoint x="-570" y="350" as="targetPoint" />
          </mxGeometry>
        </mxCell>
        <mxCell id="hxGJ-42wKDciWnZVz81r-33" value="" style="endArrow=classic;html=1;rounded=0;entryX=0.275;entryY=1.013;entryDx=0;entryDy=0;entryPerimeter=0;" edge="1" parent="1" target="hxGJ-42wKDciWnZVz81r-5">
          <mxGeometry width="50" height="50" relative="1" as="geometry">
            <mxPoint x="-385" y="670" as="sourcePoint" />
            <mxPoint x="-335" y="620" as="targetPoint" />
          </mxGeometry>
        </mxCell>
        <mxCell id="hxGJ-42wKDciWnZVz81r-34" value="" style="endArrow=classic;html=1;rounded=0;exitX=1;exitY=0.5;exitDx=0;exitDy=0;entryX=1;entryY=1;entryDx=0;entryDy=0;" edge="1" parent="1" source="hxGJ-42wKDciWnZVz81r-26" target="hxGJ-42wKDciWnZVz81r-4">
          <mxGeometry width="50" height="50" relative="1" as="geometry">
            <mxPoint x="-330" y="710" as="sourcePoint" />
            <mxPoint x="-280" y="660" as="targetPoint" />
          </mxGeometry>
        </mxCell>
      </root>
    </mxGraphModel>
  </diagram>
</mxfile>
